<?xml version="1.0" standalone="no"?>
<!DOCTYPE svg PUBLIC "-//W3C//DTD SVG 20010904//EN"
 "http://www.w3.org/TR/2001/REC-SVG-20010904/DTD/svg10.dtd">
<svg version="1.0" xmlns="http://www.w3.org/2000/svg"
 width="700.000000pt" height="700.000000pt" viewBox="0 0 700.000000 700.000000"
 preserveAspectRatio="xMidYMid meet">
<metadata>
Created by potrace 1.14, written by Peter Selinger 2001-2017
</metadata>
<g transform="translate(0.000000,700.000000) scale(0.100000,-0.100000)"
fill="#000000" stroke="none">
<path d="M1347 4313 c0 -1330 1 -2420 2 -2423 1 -3 361 -5 802 -5 440 0 803
-4 806 -8 3 -5 4 -368 4 -808 l-2 -799 1348 2 1347 3 0 535 0 535 -801 0
c-441 1 -805 4 -808 7 -5 4 -9 412 -5 518 0 13 58 15 470 15 l470 0 0 537 0
538 -37 1 c-21 0 -233 0 -470 0 l-433 1 -1 31 c0 41 0 420 0 470 l1 37 808 0
807 0 -1 523 c-1 287 -2 529 -3 538 -1 15 -120 16 -1345 16 l-1344 0 -1 -761
c0 -419 0 -782 0 -808 l-1 -47 -267 2 -268 2 -2 1865 c-1 1026 -2 1873 -2
1883 -1 16 -34 17 -538 17 l-538 0 2 -2417z"/>
</g>
</svg>
